# xmcd
#
# Track frame offsets:
#	150
#	11590
#	27697
#	42337
#	55745
#	75967
#	91185
#	107525
#	126762
#	144312
#	155167
#	174362
#
# Disc length: 2471 seconds
#
# Revision: 1
# Processed by: cddbd v1.5.1PL0 Copyright (c) Steve Scherf et al.
# Submitted via: EasyCDDAExtractor 4.6.9.1
#
DISCID=8e09a50c
DTITLE=The Whites - A Lifetime in the Making
DYEAR=2000
DGENRE=Bluegrass
TTITLE0=Always Coming Home
TTITLE1=How Many Moons
TTITLE2=Before The Prairie Met The Plow
TTITLE3=Texas To A "T"
TTITLE4=Apron Strings
TTITLE5=Old Man Baker
TTITLE6=I Miss Who I Was (With You)
TTITLE7=Key To The Kingdom
TTITLE8=Fair And Tender Ladies
TTITLE9=Jesus Is The Missing Peace
TTITLE10=Old Hands
TTITLE11=The Cowboy Lives For Ever
EXTD=
EXTT0=
EXTT1=
EXTT2=
EXTT3=
EXTT4=
EXTT5=
EXTT6=
EXTT7=
EXTT8=
EXTT9=
EXTT10=
EXTT11=
PLAYORDER=
